# .PCD v0.7 - Point Cloud Data file format
VERSION 0.7
FIELDS x y z
SIZE 4 4 4
TYPE F F F
COUNT 1 1 1
WIDTH 972
HEIGHT 1
VIEWPOINT 0 0 0 1 0 0 0
POINTS 972
DATA ascii
-4.6093049 -3.1079328 0.24510288
-4.6195793 -2.8802662 0.2362622
-4.6135831 -2.6084242 0.22553094
-4.6108871 -2.3515012 0.2158023
-4.6090584 -2.1063235 0.20686562
-4.6144538 -1.8736664 0.19890833
-4.6076565 -1.6443115 0.19102836
-4.6105714 -1.3895636 0.18298623
-4.6057048 -1.1049596 0.17425454
-4.6058316 -0.86354321 0.16740894
-4.6042485 -0.62668443 0.16106609
-4.6040664 -0.35987478 0.1544563
-4.5981731 -0.1285051 0.14896548
-4.5995531 0.082190715 0.14455266
-4.5942717 0.36553401 0.13890585
-4.5975475 0.63230675 0.13440475
-4.600822 0.86924076 0.13084836
-4.6032519 1.1110017 0.1276257
-4.5909843 1.3904068 0.12393713
-4.5902562 1.6449361 0.12134346
-4.5981517 1.8741835 0.11961955
-4.6023545 2.1104906 0.11805239
-4.5921001 2.3492289 0.11638147
-4.5858021 2.600148 0.11509142
-4.5862041 2.8672249 0.11426285
-4.5853639 3.0996919 0.11377279
-4.5903516 3.3487504 0.1136732
-4.6139197 3.6252208 0.1142654
-4.628336 3.8557944 0.11483058
-4.6652155 4.118185 0.11614348
-4.7052536 4.3993273 0.11774658
-4.7012162 4.6546097 0.11847368
-4.7056932 4.9334745 0.11965869
-4.7037439 5.1477356 0.12057841
-4.7022409 5.3739128 0.12168881
-4.696506 5.6048856 0.12284247
-4.7041082 5.8659306 0.12455736
-4.7069383 6.1337924 0.12633286
-4.6947842 6.3026133 0.12726945
-4.7006826 6.6025496 0.12954265
-4.6995163 6.9090576 0.1318596
-4.7022991 7.1303864 0.13367502
-4.7053242 7.36199 0.135639
-2.4089978 7.4891944 0.10977571
-2.061156 7.4971819 0.10749387
-1.8321203 7.496912 0.10619821
-1.718695 7.4961948 0.10563157
-4.6991625 7.5894508 0.13748659
-2.8866 7.6373901 0.11556381
-2.5951266 7.5103917 0.11151308
-2.294827 7.50068 0.10908109
-2.1813076 7.5121098 0.10844645
-1.9482502 7.5049033 0.10692786
-1.5561583 7.5253687 0.105321
-1.3469913 7.6055145 0.10566419
-4.7020078 7.842515 0.13975747
-1.1558707 7.8256497 0.10815556
-4.7075911 8.1127529 0.14228776
-1.0193809 8.0965147 0.11160954
-4.7116623 8.3941212 0.14496563
-0.93403828 8.3847752 0.11546385
-4.7098556 8.6794958 0.14766806
-0.85962051 8.8678827 0.12205446
-4.7269688 9.0163584 0.15119527
-4.7240887 9.333127 0.15433447
-4.7342486 9.6949415 0.15817015
-0.79574561 9.6435461 0.13273223
-4.7408919 10.071424 0.16219205
-4.7568326 10.49221 0.16687149
-4.7779484 10.952752 0.17212065
-4.8000851 11.447586 0.17784333
-4.8346515 12.008907 0.18452761
-4.6170111 -8.2110052 0.48729691
-4.6196814 -7.9471626 0.47378287
-4.6205978 -7.6930156 0.46080619
-4.6290207 -7.4627872 0.44922483
-4.6298599 -7.1192379 0.43188745
-4.6286111 -6.792397 0.41547939
-4.6226249 -6.5791407 0.40476671
-4.632103 -6.395926 0.39586446
-4.6246676 -6.1061077 0.38150704
-4.6165628 -5.8299866 0.36791703
-4.6219263 -5.5865707 0.35629404
-4.6209416 -5.3466611 0.34482166
-4.6256676 -5.1259537 0.33450001
-4.6192875 -4.833065 0.32070893
-4.6212549 -4.5658827 0.30847517
-4.6278577 -4.3796577 0.30017442
-4.6176853 -4.1268787 0.28866374
-4.6177945 -3.8381107 0.27599508
-4.6128311 -3.6158793 0.26632386
-4.6088347 -3.3540308 0.25521052
-4.5803876 -0.8516416 0.49339771
-4.5844183 -0.61699855 0.48494646
-4.599895 -0.35260913 0.4779827
-4.6027389 -0.12173533 0.47209167
-4.5962734 0.08895494 0.4669145
-4.5948725 0.37237144 0.46224254
-4.592063 0.63827848 0.45936945
-4.6038804 0.87646478 0.45954165
-4.5924358 1.115078 0.45867586
-4.5910339 1.3610584 0.46001884
-4.5954814 1.6167659 0.46334112
-4.591835 1.8784438 0.46719098
-4.5926523 2.1129858 0.47211704
-4.5891423 2.3548157 0.47778764
-4.5831356 2.6057394 0.48447481
-4.5800033 2.8704922 0.49286178
-4.5763974 -12.922431 0.73635799
-4.5778484 -12.36097 0.70611805
-4.5799971 -11.843095 0.67832363
-4.5887618 -11.378565 0.65354335
-4.5901799 -10.928174 0.62953353
-4.5949659 -10.51516 0.60763383
-4.5994148 -10.127495 0.58715755
-4.6083856 -9.7730045 0.56856513
-4.6035008 -9.4108467 0.54948378
-4.6114693 -9.0947819 0.53305048
-4.6107955 -8.7794104 0.51661718
-4.6154122 -8.4905386 0.50170124
-4.5462918 -4.3543272 0.73995113
-4.5553637 -4.1192722 0.71878606
-4.5514994 -3.8846762 0.69722557
-4.5533342 -3.6131744 0.67348081
-4.5607963 -3.3595214 0.65246111
-4.5620117 -3.1152532 0.63253284
-4.5627937 -2.8813996 0.6141032
-4.5682721 -2.6612208 0.59791255
-4.5734372 -2.4073031 0.58003253
-4.5800529 -2.1252532 0.56151748
-4.5761952 -1.8504528 0.54378301
-4.5828762 -1.627885 0.53138328
-4.583436 -1.3740023 0.51776868
-4.588944 -1.1284814 0.50627154
-4.5938525 -0.99090636 0.50055009
-4.579493 3.1513462 0.50307816
-4.5784216 3.3975267 0.51279497
-4.5631695 3.646467 0.52229029
-4.5667467 3.924192 0.53528523
-4.5565081 4.1474648 0.5453276
-4.5565023 4.3920088 0.5577172
-4.5434494 4.637125 0.56973362
-4.5473251 4.9143915 0.58523333
-4.5509315 5.1342559 0.59792787
-4.5406833 5.3500738 0.60983574
-4.5336556 5.5791392 0.62303472
-4.5358276 5.8335457 0.63873076
-4.5185318 6.0749106 0.6527431
-4.5246248 6.3643589 0.67159259
-4.5263982 6.6637993 0.69117206
-4.5281553 6.8756948 0.70529091
-4.5246391 7.0887747 0.71937704
-4.5222616 7.3133488 0.73447925
-3.3245001 7.6289916 0.70249009
-3.0980868 7.5473127 0.68777871
-1.0589799 7.5385342 0.63701075
-0.90554047 7.633347 0.6433183
-3.0092726 7.8023963 0.70409036
-0.76741505 7.9103971 0.66525972
-3.0451431 8.2442551 0.73939437
-2.7577298 8.177597 0.72504634
-2.6397512 8.2133789 0.72435462
-2.441231 8.19454 0.71734089
-2.1879892 8.1932268 0.71080095
-1.9323823 8.1631622 0.70261955
-1.6933426 8.1922007 0.70030177
-1.3284066 8.1807108 0.69355106
-2.9201863 8.2674112 0.73712492
-1.5264465 8.2750196 0.70422822
-0.68179655 8.2527819 0.69331223
-0.5957796 8.7295303 0.7327686
-4.5515628 -17.502499 0.9856438
-4.5529432 -16.531897 0.93248051
-4.56146 -15.681779 0.88607663
-4.5658455 -14.897761 0.84337038
-4.5656433 -14.169412 0.80377382
-4.5734692 -13.526823 0.76900059
-4.5118227 -6.814364 0.98972785
-4.5189242 -6.617013 0.96870846
-4.5229087 -6.4231586 0.94806546
-4.515707 -6.1294537 0.9163661
-4.5157957 -5.8605828 0.88805777
-4.5259476 -5.6203089 0.86375308
-4.530158 -5.3836637 0.83976156
-4.5310168 -5.1561232 0.81686014
-4.5428085 -4.8799396 0.79024625
-4.5404563 -4.6054506 0.76340652
-4.5070634 -2.8825305 0.99148864
-4.494874 -2.7847831 0.97840416
-4.5039239 -2.6152592 0.96074694
-4.5073843 -2.3643701 0.93443078
-4.509201 -2.1233642 0.9105491
-4.5087266 -1.8909336 0.88876677
-4.5114484 -1.6316063 0.86700046
-4.5184717 -1.3115995 0.84362972
-4.498661 -1.4113514 0.84761775
-4.5188832 -1.1384902 0.83206511
-4.5183334 -0.86665416 0.81570059
-4.5249224 -0.60194612 0.80361032
-4.5179596 -0.37210062 0.793046
-4.5239916 -0.14518866 0.78693759
-4.5201273 0.094087526 0.78085899
-4.5224366 0.37331825 0.77774656
-4.510294 0.63353282 0.77510977
-4.5156713 0.8664183 0.77767259
-4.5222535 1.1047131 0.78263259
-4.514092 1.3804424 0.78819919
-4.5105777 1.6299324 0.79609793
-4.5095749 1.8515865 0.80521727
-4.5037541 2.131716 0.81828499
-4.4960132 2.075069 0.81392843
-4.5041304 2.3587499 0.83117914
-4.4900451 2.4751692 0.83621669
-4.5055528 2.6546118 0.85040158
-4.5008678 2.9180288 0.86839634
-4.4964328 2.8248055 0.86092079
-4.4902787 3.0973175 0.88064981
-4.5007763 3.4992032 0.91526693
-4.4976196 3.3450241 0.90173101
-4.4914474 3.6491659 0.92725146
-4.4803858 3.857728 0.94488603
-4.4749079 4.0810366 0.9654783
-4.4702606 4.3168745 0.98826563
-4.5361652 7.575664 0.75318903
-4.5299215 7.8164444 0.76957804
-4.5334215 8.0865898 0.788692
-4.5356731 8.3686619 0.80878532
-4.5398579 8.6697626 0.83052897
-4.539783 8.9794474 0.85290551
-4.5512967 9.3308964 0.87904388
-4.5550237 9.6873302 0.90543604
-0.52361238 9.712472 0.81482571
-4.5666628 10.083681 0.93533754
-1.732746 68.994484 0.95461065
-0.7454747 68.997787 0.95713115
0.24156961 68.996529 0.96008086
1.2285016 68.985451 0.96338654
2.2240183 69.235855 0.97085279
3.2155833 69.227158 0.97519863
4.2084875 69.2229 0.98010767
5.2024379 69.211197 0.98541456
6.198657 69.204681 0.99130249
7.1989684 69.214729 0.99794036
-4.5652514 -21.268217 1.1929529
-4.54707 -19.797119 1.1117578
-4.5490003 -18.581409 1.0448706
-4.5040908 -8.864007 1.2194189
-4.4977608 -8.5458698 1.1826606
-4.50419 -8.2682133 1.1513224
-4.5070968 -7.9983792 1.12091
-4.5129318 -7.7468867 1.0929081
-4.5088959 -7.3721142 1.0509266
-4.5128727 -7.0329514 1.0136842
-4.489872 -4.6754408 1.2301509
-4.4841318 -4.4090281 1.1902525
-4.4850764 -4.1636658 1.1551484
-4.4909062 -3.8796031 1.116347
-4.4909248 -3.6061583 1.0795
-4.4966683 -3.3533814 1.0475492
-4.4932203 -3.1062055 1.0162276
-4.5113649 -2.9772389 1.0032657
-4.4744 -1.86879 1.2361908
-4.4709368 -1.6094487 1.2062423
-4.4726415 -1.3606749 1.1814642
-4.4796133 -1.1212007 1.1618866
-4.483983 -0.85296619 1.1425644
-4.4750748 -0.6208601 1.1257612
-4.4782333 -0.39407775 1.1151717
-4.4744954 -0.13687481 1.1047211
-4.4746895 0.099999771 1.0992566
-4.4750829 0.376149 1.0968425
-4.4811802 0.63619936 1.09982
-4.4720402 0.89804834 1.1027973
-4.4716125 1.1329824 1.110366
-4.4735065 1.3748734 1.1217784
-4.4728832 1.6232486 1.1357111
-4.4657502 1.8782332 1.1516629
-4.4598804 2.143563 1.1715478
-4.4609852 2.3843338 1.1936036
-4.460928 2.635632 1.218726
-4.4550571 2.8508496 1.2407802
-4.4771729 4.57757 1.0158856
-4.4645576 4.8331547 1.0415454
-4.4562521 5.1092815 1.0708711
-4.4546041 5.4118042 1.1048615
-4.4565105 5.6558762 1.1332867
-4.4482021 5.9015598 1.1614645
-4.4614401 6.1896405 1.1974472
-4.4505095 6.363945 1.2176659
-4.4499054 6.5604115 1.2418983
-0.84511763 7.5789051 1.1783818
-0.73776227 7.59863 1.1797974
-2.0802789 7.7944398 1.2476223
-0.64284831 7.7719793 1.2053074
21.6119 68.910751 1.141416
8.1989384 69.194298 1.0046556
9.204731 69.196526 1.0122203
10.215057 69.203049 1.0203772
11.22876 69.202888 1.0289716
12.244738 69.188957 1.0379015
13.267253 69.184303 1.047518
14.294928 69.178032 1.0576664
15.330968 69.182854 1.0685513
16.370398 69.173546 1.0797944
17.418037 69.169861 1.09171
18.472157 69.162468 1.1041635
19.540024 69.175888 1.1175605
20.610638 69.168152 1.1312392
22.773134 69.134056 1.1601981
23.880989 69.152367 1.1762582
24.992296 69.148338 1.1926237
26.116629 69.148506 1.20976
27.24634 69.131317 1.2273053
28.398743 69.139397 1.2460334
-4.5105453 -11.160259 1.488425
-4.5094852 -10.712795 1.4353838
-4.4998775 -10.275338 1.383455
-4.502933 -9.8937244 1.3388283
-4.5005236 -9.5237846 1.2955812
-4.5055876 -9.190958 1.2571912
-4.494225 -6.3682556 1.4982762
-4.4981117 -6.09196 1.453191
-4.4813628 -5.8027716 1.4044514
-4.4904542 -5.6452069 1.3801196
-4.4879646 -5.4000392 1.3410113
-4.4863834 -5.0933189 1.2930715
-4.4842939 -4.8748364 1.2594188
-4.4919362 -3.5441318 1.4911557
-4.4865613 -3.3861122 1.4625373
-4.4808578 -3.1364987 1.4192709
-4.4750772 -2.8536892 1.3725642
-4.4768829 -2.5908911 1.3330172
-4.4721217 -2.3375266 1.2958537
-4.480423 -2.1017485 1.2662939
-4.4775176 -1.0111543 1.4998238
-4.477766 -0.87747639 1.4879332
-4.476325 -0.64643538 1.4696021
-4.4748654 -0.38661781 1.4534242
-4.4697905 -0.12947883 1.4410145
-4.4703226 0.10703095 1.4355214
-4.4744558 0.38310689 1.4353356
-4.4600759 0.64016998 1.4342871
-4.457438 0.86888933 1.4404626
-4.4709706 1.106168 1.4559516
-4.4611516 1.3781607 1.4702923
-4.466023 1.6277932 1.4917879
-4.4578948 2.9887958 1.2571125
-4.45156 3.124877 1.2720382
-4.4567938 3.372268 1.3039807
-4.4511585 3.6241465 1.336026
-4.4537945 3.8425956 1.3666618
-4.4568391 4.1317577 1.4089327
-4.4556389 4.3723106 1.444676
-4.4564462 4.5645905 1.4745311
-4.4589343 6.7799487 1.2702065
-4.466639 7.1203227 1.3141072
-4.4675531 7.4708257 1.3592911
-4.4785085 7.7376304 1.3950264
-3.354672 7.5587263 1.284306
-4.360292 7.7875347 1.3916637
-4.1695709 7.8352346 1.3825544
-3.9148865 7.8917322 1.370484
-3.7174778 7.9149942 1.3591363
-3.2510781 7.7694669 1.306949
-2.3134849 7.9792705 1.2852743
-1.9277965 7.8977933 1.2568492
-3.258352 8.1097851 1.3555899
-2.8212154 8.1798058 1.3401445
-2.5733964 8.2139854 1.332271
-1.7986654 8.1216831 1.2857609
-1.5731442 8.2017517 1.2905405
-1.3310176 8.1962404 1.2830367
-1.0905747 8.1846485 1.2758389
-0.55498016 8.1173573 1.2576983
-3.1187115 8.2689724 1.3698654
-0.47109345 8.7153301 1.3494051
29.55629 69.12709 1.2651501
30.734739 69.130562 1.2853316
31.915333 69.105789 1.3057832
33.136288 69.133942 1.3280624
34.347698 69.107346 1.3501419
35.590286 69.109085 1.3736464
36.845917 69.100601 1.3978529
-4.5340872 -12.774505 1.6822591
-4.5238223 -12.188155 1.6115124
-4.5158377 -11.651615 1.5470912
-4.514761 -7.7331519 1.7324504
-4.5213957 -7.4953032 1.6917889
-4.5029821 -7.115078 1.6248786
-4.4978013 -6.778234 1.5671936
-4.4965286 -6.5696697 1.5320419
-4.5046358 -4.6792111 1.7094169
-4.5037761 -4.4171915 1.6569817
-4.4943714 -4.1616473 1.6056271
-4.49089 -3.869173 1.549913
-4.4762459 -3.6371677 1.5047367
-4.5085983 -2.5998414 1.7362884
-4.4993005 -2.5091717 1.7170444
-4.5095673 -2.3484449 1.6915851
-4.4983687 -2.3420913 1.6871243
-4.4909353 -2.0982282 1.6443278
-4.4867802 -1.8657638 1.6071873
-4.4858375 -1.6428245 1.5753373
-4.4777541 -1.389778 1.5407339
-4.4732404 -1.1459317 1.5119839
-4.4667211 1.8482698 1.5128733
-4.466156 2.1149099 1.5417652
-4.4733615 2.3982284 1.5786648
-4.4750009 2.6515009 1.6137094
-4.4705496 2.8684421 1.6444223
-4.4703555 3.0987024 1.6806542
-4.4795465 3.3470163 1.7243826
-4.4566069 4.8330197 1.5171545
-4.4512548 5.1123276 1.5619506
-4.4592795 5.3474383 1.6025797
-4.4648714 5.5935516 1.6455722
-4.4680867 5.849122 1.6905608
-4.4650126 6.021029 1.7205399
-0.85022545 7.6207681 1.7399009
-0.74151856 7.6310534 1.7397696
-4.5865722 -14.931091 1.9449733
-4.56498 -14.135257 1.8476375
-4.5507112 -13.429329 1.7617433
-4.5684729 -8.9711695 1.95541
-4.5517101 -8.6295881 1.893203
-4.5338612 -8.3045979 1.8342131
-4.5355959 -8.0314522 1.7863109
-4.5572624 -5.887382 1.9731437
-4.5440073 -5.6168785 1.9122289
-4.5331998 -5.3621507 1.8558462
-4.5254507 -5.1255856 1.8047154
-4.5221357 -4.904048 1.7581518
-4.5532136 -3.7988462 1.999797
-4.5391588 -3.6245437 1.9564722
-4.5262666 -3.3558381 1.8937455
-4.5186162 -3.1048064 1.8384101
-4.5117044 -2.8681469 1.7887582
-4.4971924 -2.8579507 1.7826345
-4.5062752 -2.6853762 1.7516956
-4.539485 -1.6175547 1.9708002
-4.5334816 -1.363155 1.9300936
-4.5247869 -1.1167687 1.894536
-4.5222287 -0.8782056 1.866834
-4.5131197 -0.64404714 1.8419069
-4.5102048 -0.41453215 1.8242254
-4.4985476 -0.28393668 1.8121775
-4.5168362 -0.058758929 1.8105879
-4.4950757 -0.18703207 1.8064215
-4.5084448 0.10266116 1.8039314
-4.4937878 0.13431346 1.7973014
-4.5028524 0.39284247 1.8007263
-4.4896984 0.39194429 1.7958401
-4.5084972 0.62161195 1.8078735
-4.4887314 0.61878312 1.7997577
-4.5031042 0.75231272 1.8103256
-4.4981847 0.88423842 1.8148342
-4.502604 1.1554308 1.834229
-4.4970121 1.0858195 1.8269534
-4.5080447 1.3647426 1.8539449
-4.5114141 1.615726 1.8810453
-4.5130301 1.8748474 1.9129936
-4.5205717 2.1089132 1.9482199
-4.519536 2.3074858 1.9781516
-4.4851718 3.6074364 1.7717322
-4.4856157 3.8782372 1.8218775
-4.5027885 4.1817646 1.8847486
-4.4904609 4.052793 1.8565148
-4.502152 4.3643217 1.9212697
-4.5246239 4.6431189 1.9839078
-4.4750204 6.2177539 1.757218
-4.4840841 6.4213595 1.7953894
-4.4931912 6.6337681 1.8355676
-4.4995594 6.8513927 1.8767385
-4.5172949 7.0967078 1.9249994
-4.5242 7.3362036 1.9711766
-3.2968087 7.58184 1.8821543
-3.2047493 7.6669097 1.8910792
-3.1513603 7.8516088 1.9247246
-0.64921242 7.8392906 1.7851021
-3.1310503 8.1342554 1.9822528
-2.7700765 8.2288103 1.9729948
-2.6340988 8.2097235 1.9587599
-2.4389892 8.2000399 1.9430008
-2.1250641 8.2018032 1.9235333
-1.8194571 8.2155085 1.9096748
-1.5731803 8.2038574 1.8954798
-1.2752873 8.2248297 1.8884121
-1.1501576 8.1860704 1.8755655
-2.9155354 8.269516 1.9930215
-1.4026823 8.2671556 1.9025586
-0.5788675 8.4514837 1.9226298
-4.6507907 -16.847389 2.1808302
-4.6109443 -15.81509 2.0534594
-4.6241398 -10.137835 2.1701829
-4.5976286 -9.708066 2.0902348
-4.5778861 -9.3181219 2.0183792
-4.6188817 -6.9449787 2.2199368
-4.6039352 -6.6101532 2.1414177
-4.58184 -6.2841287 2.0647316
-4.5683537 -6.0801868 2.0173316
-4.6171107 -4.6482449 2.2215018
-4.5893621 -4.3622046 2.1434703
-4.5728326 -4.1028147 2.0763357
-4.5533447 -3.9112344 2.0260487
-4.6104088 -2.8280106 2.2382114
-4.5989819 -2.6429396 2.1916988
-4.5822482 -2.3768864 2.1277361
-4.5587869 -2.1209667 2.0673916
-4.5404601 -1.8792921 2.0154603
-4.6094236 -0.31586814 2.2444715
-4.5953588 -0.11737855 2.2281938
-4.5956359 0.1257748 2.2221475
-4.5897222 0.37545481 2.2192867
-4.5913477 0.60770607 2.2262392
-4.5945344 0.84322339 2.2394443
-4.5244327 2.4330404 2.0003345
-4.5405674 2.6116395 2.0368652
-4.5469389 2.8802652 2.0886514
-4.5640669 3.1237073 2.1424818
-4.5766926 3.3779037 2.2000427
-4.5826182 3.5872881 2.2478952
-4.5298519 4.8510351 2.0290961
-4.5444021 5.0804148 2.0820169
-4.553946 5.392396 2.153338
-4.5689716 5.6498318 2.2148793
-4.5470252 7.6138821 2.0270779
-4.562758 7.8935194 2.0829198
-4.5717597 8.1757069 2.1388993
-3.0632079 8.3090811 2.0134239
-4.5997052 8.5079412 2.2073774
-4.7013397 -18.035126 2.327903
-4.7237616 -11.66196 2.4568532
-4.6785612 -11.089991 2.3483152
-4.6445694 -10.582488 2.2528226
-4.7246184 -8.0745258 2.4978683
-4.696105 -7.7674956 2.4216499
-4.66537 -7.4719825 2.348335
-4.639883 -7.1987853 2.2813699
-4.6975603 -5.5429335 2.4741046
-4.6816506 -5.3658156 2.4230146
-4.6613007 -5.1161785 2.3523641
-4.6344891 -4.8708873 2.2823968
-4.6938496 -3.6278248 2.4692397
-4.6605644 -3.3927588 2.3958206
-4.6388488 -3.1289427 2.321136
-4.6200604 -2.9260509 2.2648487
-4.6965628 -1.8170853 2.4859631
-4.6726475 -1.6179549 2.4365807
-4.6544461 -1.3905677 2.3882284
-4.6381345 -1.1361372 2.3415682
-4.6246967 -0.85537183 2.2991211
-4.6088581 -0.61573768 2.266794
-4.6121778 -0.44884509 2.2546167
-4.6163378 0.98396415 2.2593486
-4.605041 1.1199316 2.2654073
-4.6137981 1.3691988 2.2948704
-4.6211343 1.6258626 2.3300803
-4.6372514 1.8578495 2.3712225
-4.6515689 2.0982418 2.4173183
-4.6667209 2.3496509 2.4702518
-4.5870662 3.6971867 2.2742393
-4.60847 3.879813 2.3233874
-4.6317291 4.1300855 2.390563
-4.6656613 4.4048944 2.4689555
-4.5829363 5.8349905 2.2604358
-4.6057811 6.0390234 2.3126211
-4.6330142 6.3523808 2.3922725
-4.659162 6.6821876 2.4766946
-2.8732579 7.633862 2.4643741
-2.7199471 7.7222095 2.4727201
-1.1295228 7.6424084 2.3300467
-0.97539312 7.7384453 2.3524225
-2.6330004 7.8288665 2.4941313
-1.387511 7.8370099 2.4005289
-4.6272311 8.8581676 2.2798431
-4.6604357 9.2400885 2.3597529
-4.6964417 9.6509314 2.4462891
-4.7706618 -19.439253 2.5024343
-4.8462014 -13.027471 2.7184238
-4.773459 -12.288919 2.5763159
-4.7979054 -8.7686472 2.672821
-4.7573733 -8.4053688 2.5807478
-4.8224959 -6.4031053 2.7375436
-4.785995 -6.1680198 2.664288
-4.7520447 -5.9457254 2.5956397
-4.7289777 -5.7454848 2.5357862
-4.8059754 -4.3620319 2.7122633
-4.7656951 -4.1421552 2.6358991
-4.7229996 -3.8723369 2.5459013
-4.7967615 -2.6101289 2.7136538
-4.7584829 -2.3725042 2.6376529
-4.7458377 -2.3655047 2.6302073
-4.7205977 -2.1048539 2.5582612
-4.704473 -1.9373387 2.5143447
-4.7973056 0.26366907 2.7473516
-4.6912098 2.6187036 2.5352898
-4.7226028 2.8606377 2.6014018
-4.7635598 3.12257 2.6796472
-4.78406 3.3333318 2.739804
-4.6822124 4.6127548 2.5269067
-4.7164497 4.849494 2.5987186
-4.7516127 5.0981832 2.6750655
-4.7715859 5.2677703 2.7267981
-4.6947722 6.9416971 2.5466454
-4.7307 7.2138696 2.6203208
-4.7647147 7.496139 2.6967397
-2.5471961 7.9459171 2.5191617
-2.4161754 8.130929 2.5602927
-2.0079389 8.2363491 2.5576501
-1.6206392 8.142292 2.504108
-2.2715867 8.2863884 2.5928044
-2.1511574 8.30863 2.5896118
-1.8483307 8.349884 2.5798364
-4.7390261 10.101624 2.5421143
-4.7976394 10.617258 2.6533673
-1.4957105 11.869927 2.7145023
-4.9691696 -21.580912 2.7712147
-4.9373512 -13.879275 2.8832905
-4.9305634 -9.6606178 2.904475
-4.8659358 -9.2047615 2.7861745
-4.9297485 -6.9530015 2.9148576
-4.8731337 -6.6677742 2.822423
-4.937717 -5.0288768 2.9533958
-4.8977513 -4.8466997 2.8855116
-4.8493052 -4.5965848 2.795233
-4.9397559 -3.3195002 2.9708745
-4.8999462 -3.1419029 2.9026771
-4.8448062 -2.8668807 2.8025239
-4.931653 -1.3485088 2.9699733
-4.9039717 -1.1172597 2.9159281
-4.8672047 -0.85481519 2.857764
-4.8399649 -0.63726926 2.8171518
-4.8228817 -0.39084271 2.7856278
-4.8139024 -0.11395946 2.7643771
-4.8066478 0.10954974 2.7537501
-4.8069987 0.40203857 2.7547436
-4.7988715 0.60909241 2.7568436
-4.8215637 0.85857314 2.7846279
-4.8331432 1.1116562 2.8131192
-4.8559551 1.3751349 2.8564255
-4.8855872 1.6503166 2.9119225
-4.9224086 1.9004282 2.973953
-4.8055868 3.4507952 2.778352
-4.8403521 3.6349716 2.8403893
-4.8907156 3.8949807 2.9305248
-4.8009539 5.4540033 2.7862074
-4.826725 5.6429844 2.8460288
-4.871448 5.8618903 2.9198294
-4.8186765 7.8247061 2.7887802
-4.8739572 8.1725864 2.8865438
-4.9411836 8.559763 2.9969409
-5.0698514 -14.927254 3.0878618
-5.1490135 -10.84802 3.2200696
-5.0186958 -10.192565 3.0445266
-5.0658784 -7.5992427 3.1275947
-4.980381 -7.243022 3.0081446
-5.1176677 -5.6831865 3.211298
-5.0509377 -5.4493108 3.1178339
-4.9882002 -5.2286782 3.0303242
-5.1094546 -3.8777604 3.210588
-5.0469217 -3.6620264 3.1180506
-4.9770226 -3.449419 3.0248692
-5.1116099 -2.0514512 3.2171996
-5.0459137 -1.8588862 3.1367104
-5.0290108 -1.7304584 3.0990098
-4.9783263 -1.5942976 3.0429091
-4.9695468 -1.4742748 3.0142248
-4.9549589 2.1181598 3.0324147
-5.0237541 2.4059176 3.1288981
-4.9870763 2.2586498 3.0779531
-5.073338 2.6094811 3.2009616
-4.9363976 4.1057334 3.0070155
-5.0160146 4.4188852 3.127481
-4.9669247 4.2519002 3.0604889
-5.0594735 4.5863972 3.193248
-4.9328275 6.1103287 3.0069551
-4.9856291 6.3584962 3.0924971
-5.056375 6.6409097 3.193167
-5.0321369 9.0109415 3.1282959
-5.3045192 -16.387409 3.376255
-5.3550081 -11.713847 3.4561787
-5.3179522 -8.4973249 3.4372947
-5.1728377 -8.0069304 3.2665718
-5.3453941 -6.2911296 3.4709177
-5.2135077 -5.9599061 3.3270876
-5.3415766 -4.4297676 3.4802647
-5.2090816 -4.1342845 3.3321197
-5.2966962 -2.5339308 3.4399457
-5.2117395 -2.3570914 3.3478451
-5.1723542 -2.2060301 3.2877626
-5.1477828 2.8355863 3.2936883
-5.2561798 3.1431012 3.4273303
-5.2152872 3.0189335 3.3742371
-5.162219 4.884798 3.3209262
-5.2897525 5.2223411 3.4708076
-5.1535282 6.971827 3.3153045
-5.2887707 7.3716059 3.4678667
-5.1561494 9.5495815 3.2882504
-5.3401346 10.235934 3.4968007
-5.6496968 -9.3230715 3.7404335
-5.553688 -6.7302446 3.6710317
-5.4907346 -4.6884265 3.6233695
-5.5927944 -2.9781988 3.7195747
-5.4563713 -2.8056839 3.599293
-5.3534131 -2.6562121 3.503525
-5.3765221 3.3732061 3.5492032
-5.5442462 3.644556 3.7070537
-5.4273701 5.5125117 3.6103849
-5.5324416 7.9472022 3.6997802
-7.5271878 17.330246 5.7135277
-7.395174 17.711384 5.8023205
-7.302608 18.21389 5.9307723
1.2157043 69.221382 5.8135042
2.2053607 69.229874 5.8199115
3.1952281 69.218079 5.8261061
4.1871691 69.22448 5.8353276
5.1805367 69.22451 5.8455181
6.1762066 69.226479 5.8573833
7.1725211 69.209557 5.8691702
8.1717415 69.196266 5.8827934
9.1754303 69.194046 5.8989005
10.184142 69.200455 5.9173069
11.195199 69.193916 5.9361858
12.210987 69.18869 5.956769
13.231893 69.184113 5.9790239
21.583443 68.976906 6.2028694
14.256631 69.171593 6.0022249
15.290634 69.175186 6.0284848
16.330971 69.177399 6.0563154
17.375759 69.169022 6.0849338
18.429632 69.167366 6.1158857
19.491528 69.165733 6.1486182
20.561983 69.164146 6.183167
22.725485 69.144974 6.256403
23.82041 69.130974 6.2954812
24.934362 69.140808 6.3387022
26.05414 69.134674 6.3824873
27.189131 69.136826 6.4291077
28.333029 69.12925 6.4769473
29.494368 69.131439 6.5278845
30.665281 69.122925 6.5800509
31.84804 69.108192 6.6339188
33.051392 69.104599 6.6912155
37.902325 68.843391 6.9208083
39.18861 68.833267 6.9902163
34.273335 69.105293 6.7513747
35.515354 69.111038 6.8145595
36.763245 69.092934 6.8779883
40.497742 68.826591 7.0628257
-7.7025142 20.053019 8.1653967
-7.4244633 20.180439 8.1719666
-7.3146276 20.787924 8.3735647
-7.2487745 21.574116 8.6464844
-7.2102923 22.513174 8.9795265
-7.1900806 23.598137 9.3692923
-7.1298923 24.650311 9.7446241
-10.332277 24.774164 10.207489
-9.9687147 24.89135 10.194209
-7.0975184 25.910818 10.200886
-5.6331205 26.353228 10.229087
-5.2475295 26.375355 10.207216
-4.8608341 26.383093 10.182097
-4.4800358 26.414991 10.168589
-4.0968933 26.425793 10.149217
-3.71718 26.451191 10.137698
-3.3399897 26.490324 10.133647
-2.9599855 26.502134 10.121347
-2.2072649 26.584101 10.125578
-1.8310391 26.632002 10.133573
-1.456978 26.73115 10.163209
-10.730296 24.734116 10.255084
-6.8824449 26.601955 10.432397
-6.5171785 26.750381 10.452332
-6.1495876 26.895983 10.473255
-2.6706054 27.43605 10.462905
-2.743125 68.993286 10.677339
-1.7578062 68.984116 10.673425
-0.77351165 68.97953 10.672701
0.21034066 68.974213 10.674335
1.1940867 68.966225 10.67803
2.1781929 68.961258 10.684669
3.1638985 68.97477 10.696655
4.1496124 68.960419 10.706815
5.1378365 68.96241 10.72201
6.1277204 68.958687 10.738829
-7.816123 22.236799 10.893776
-7.4236441 22.117163 10.780976
-7.2376399 22.620657 10.973833
7.1197114 68.951973 10.757713
8.1131935 68.934616 10.777476
9.1144381 68.954361 10.805615
10.113461 68.929268 10.829318
11.161243 69.184814 10.899836
12.176958 69.189102 10.933543
13.191975 69.162201 10.965004
14.2192 69.171417 11.004912
15.250863 69.172104 11.046235
16.289131 69.173042 11.090413
17.333742 69.171196 11.136997
18.382116 69.155426 11.184234
19.440624 69.148872 11.235902
-7.1313024 23.426992 11.313452
20.510954 69.153992 11.29248
21.585255 69.142159 11.34936
22.673584 69.144775 11.411745
23.771656 69.145699 11.477057
24.87767 69.138458 11.544293
25.997675 69.138573 11.616108
27.126982 69.131538 11.690155
28.270237 69.127937 11.768303
29.429174 69.129837 11.851008
30.590595 69.105156 11.932853
31.780375 69.111519 12.023863
32.979069 69.103188 12.116252
34.196144 69.09922 12.213446
37.818157 68.839401 12.485641
35.425377 69.085342 12.313047
36.685139 69.09552 12.42125
39.100468 68.827454 12.598481
40.411297 68.828903 12.718507
-3.7390141 68.987236 15.682133
-2.7542059 68.982353 15.67274
-1.7706302 68.976738 15.666679
-0.78802371 68.97966 15.666054
0.19432183 68.970901 15.666262
1.1765465 68.964516 15.670495
2.1594615 68.970436 15.681015
3.1428688 68.963959 15.692219
4.1274309 68.958321 15.707124
5.1146007 68.967186 15.728856
6.1019406 68.951385 15.748501
7.0923967 68.945885 15.774056
8.0851269 68.936203 15.802238
9.0837355 68.947868 15.838939
10.082926 68.935478 15.873756
11.085974 68.923203 15.912282
12.096482 68.92907 15.958726
13.1094 68.920006 16.00548
14.130763 68.926437 16.059662
15.155902 68.921906 16.115166
16.18746 68.917725 16.174686
17.226683 68.916862 16.238983
18.271471 68.908989 16.305689
19.322668 68.896423 16.375408
20.38331 68.88839 16.450399
21.534668 69.14344 16.592815
22.616623 69.132576 16.676109
23.710443 69.127556 16.765308
24.814674 69.121933 16.85895
25.934484 69.127914 16.960138
27.063177 69.125305 17.064058
28.203169 69.119431 17.172121
29.355827 69.112312 17.284933
30.522867 69.106331 17.403234
31.705984 69.103455 17.527676
32.89579 69.082008 17.652887
34.122982 69.104492 17.795029
35.348995 69.089333 17.93335
36.596321 69.081131 18.079487
37.841286 69.03434 18.221659
39.014393 68.828453 18.327711
40.310291 68.809578 18.489691
8.0569134 68.944336 20.991297
-6.7335496 69.237114 20.9825
-5.7408786 69.233856 20.955992
-4.7509189 69.234756 20.935368
-3.7627234 69.233223 20.9186
-2.7755959 69.219353 20.902685
-1.7907872 69.236748 20.90077
-0.8056491 69.206993 20.889177
0.17841288 69.210075 20.892042
1.1628159 69.223206 20.902489
2.1473377 69.212517 20.910299
3.1325724 69.204773 20.923552
4.1189451 69.198257 20.941751
5.1078067 69.205093 20.968582
6.098588 69.207718 20.99876
9.0502453 68.927452 21.029404
10.049127 68.926285 21.07703
11.05325 68.931976 21.131548
12.057238 68.909576 21.182281
-7.7290287 69.240112 21.013573
7.0891767 69.183281 21.025356
13.118419 69.16555 21.323698
14.136493 69.146721 21.385586
15.16591 69.154861 21.460852
16.19726 69.142616 21.53492
17.239088 69.146004 21.619051
18.287447 69.145554 21.707283
19.342518 69.140717 21.799522
20.40761 69.141594 21.899054
21.478775 69.132912 22.001143
22.558466 69.121849 22.108162
23.650112 69.117065 22.223009
24.754049 69.117058 22.34535
25.868568 69.114983 22.473133
26.994688 69.112083 22.606901
28.131725 69.105164 22.745756
29.290756 69.119217 22.898123
30.446667 69.093246 23.043968
31.628939 69.09449 23.205795
32.825085 69.09211 23.373564
34.033768 69.08213 23.546104
35.264347 69.082031 23.729588
36.50473 69.066307 23.915493
38.918011 68.816116 24.234566
37.774979 69.07151 24.116714
40.215431 68.805557 24.446453
8.0246019 68.928116 26.395861
9.0203581 68.944565 26.455013
-1.8043228 69.216492 26.291277
-0.8212297 69.198914 26.280624
0.16111647 69.210724 26.286766
1.143703 69.211891 26.294502
2.1267872 69.212616 26.307709
3.110219 69.201103 26.321911
4.0943317 69.185051 26.340054
5.0820427 69.201363 26.376211
6.0709743 69.202553 26.412325
7.0600977 69.18087 26.445452
10.015295 68.926437 26.506777
11.015697 68.919785 26.568855
12.021944 68.921463 26.640137
13.080328 69.171982 26.81395
14.098074 69.160004 26.892447
15.12057 69.144119 26.975639
16.155212 69.154716 27.075506
17.191553 69.143051 27.1731
18.236586 69.137604 27.279671
19.291107 69.138367 27.395357
20.352472 69.133644 27.515661
21.421761 69.126007 27.641712
22.501165 69.120903 27.775831
23.589396 69.112541 27.91584
24.698038 69.132149 28.074554
25.804499 69.113945 28.225491
26.928043 69.110497 28.390148
28.065407 69.110352 28.564093
29.21422 69.105919 28.744408
30.379498 69.107483 28.935583
31.553658 69.096161 29.129942
32.743431 69.085976 29.333563
33.952171 69.081955 29.548883
35.181087 69.084236 29.776287
36.417271 69.06604 30.004509
-6.72015 68.974274 31.999289
-5.7349191 68.974998 31.960192
-4.7515631 68.969688 31.925165
-3.7707253 68.972778 31.900854
-2.7908742 68.96521 31.878418
-1.8120904 68.947884 31.858246
-0.83495671 68.967407 31.861866
0.14235578 68.95945 31.859556
1.1195171 68.951347 31.863928
2.097079 68.948486 31.877476
3.0755889 68.949287 31.899485
4.0542326 68.930504 31.919226
5.0352664 68.929008 31.953781
-7.7086182 68.978386 32.047539
6.0198369 68.944878 32.00325
7.0039859 68.927872 32.044346
7.9919343 68.923019 32.098019
8.9843016 68.927917 32.163235
9.9787588 68.920654 32.229832
10.976563 68.90979 32.301849
11.979839 68.90596 32.384357
12.990034 68.91288 32.479218
17.869854 67.938789 32.583103
16.905626 68.188812 32.574707
15.94177 68.441536 32.574459
14.973008 68.675209 32.571976
14.001805 68.899734 32.571999
