# .PCD v0.7 - Point Cloud Data file format
VERSION 0.7
FIELDS x y z
SIZE 4 4 4
TYPE F F F
COUNT 1 1 1
WIDTH 1320
HEIGHT 1
VIEWPOINT 0 0 0 1 0 0 0
POINTS 1320
DATA ascii
-2.4530196 -1.5565989 0.10143789
-2.4171398 -1.369784 0.097050987
-2.4261401 -1.1325911 0.093580611
-3.792841 -0.79855275 0.13560601
-3.7290142 -0.92574906 0.13440347
-2.7792456 -0.77500635 0.10090663
-2.5780838 -0.81873566 0.094593987
-2.4657125 -0.94199169 0.092275709
-4.0478792 -0.70217824 0.14375851
-3.8876719 -0.73185068 0.13841605
-2.4197593 -1.7903998 0.31632215
-10.714384 -1.6225331 0.37924474
-2.4089565 -1.6027988 0.30414596
-10.716295 -1.3881757 0.37820309
-2.4342914 -1.3607738 0.39323094
-10.735055 -1.1570239 0.37795395
-2.4219019 -1.1213647 0.36748168
-10.724716 -0.84610623 0.37663788
-2.4077141 -0.88139963 0.36096302
-12.11503 -0.52061528 0.42460373
-10.740994 -0.61568928 0.37669
-3.7611897 -0.5421105 0.39969575
-3.7247264 -0.64611942 0.39762995
-2.6030684 -0.58605438 0.28064454
-2.4363344 -0.64835584 0.38438451
-4.0183892 -0.46221513 0.42546859
-3.8382628 -0.49725407 0.40709841
-2.6183386 -0.45348987 0.46878442
-2.4158163 -1.8520284 0.57310414
-2.5612068 -1.5489665 0.74627668
-2.4278402 -1.6151397 0.62132978
-2.6016116 -1.3777004 0.73417294
-2.4517722 -1.4352171 0.5009411
-2.6099172 -1.1727046 0.71355671
-2.4710472 -1.0056087 0.66524947
-2.4355268 -0.87214357 0.64524209
-3.7209404 -0.53635913 0.66317981
-2.4132543 -0.63659054 0.622675
-3.8016124 -0.40949059 0.67454892
-3.7231975 -0.4823966 0.66229373
-2.7820609 -0.36049598 0.69968069
-2.5649486 -0.38831645 0.64702451
-2.4531367 -0.46178219 0.62260205
-7.4065127 -26.934196 0.97160143
-6.9466014 -26.753702 0.96134871
-7.7278624 -26.607243 0.96375614
-2.4377377 -2.0589662 0.79547197
-2.4104812 -1.8577957 0.85658836
-2.6031291 -1.540485 0.90639836
-2.454664 -1.6325839 0.95802671
-2.5404856 -1.3688567 0.93780071
-2.5492034 -1.1234266 0.90559942
-2.4470546 -0.83701003 0.84061098
-2.40886 -0.60303783 0.85611242
-3.8021245 -0.38238811 0.95310062
-3.7395601 -0.43024242 0.93885446
-2.5660832 -0.35098419 0.84177858
-2.4372272 -0.45268258 0.87082845
-2.412838 -1.8769418 1.1533715
-2.425252 -1.6133209 1.1770723
-2.5888205 -1.3460116 1.1790694
-2.468879 -1.4454269 1.1559534
-10.889197 -1.0948637 1.151204
-2.6268783 -1.1583451 1.1602504
-10.754996 -0.92609489 1.1355267
-10.722823 -0.76889473 1.13088
-2.4327445 -0.85649961 1.1223922
-10.731193 -0.61526144 1.1307458
-2.413028 -0.64879054 1.1319914
-10.765491 -0.46275511 1.1335732
-2.5926774 -0.37383559 1.058576
-2.47435 -0.44762585 1.1217577
-2.4198146 -1.7637624 1.4603919
-2.4127631 -1.6056687 1.4138029
-2.40625 -1.363632 1.3492514
-2.4073331 -1.1242391 1.2963139
-2.4091394 -0.9015944 1.4083889
-2.4298267 -0.69635636 1.459693
-3.883352 -0.44684014 1.2704567
-2.611305 -0.45320565 1.2928916
-6.8725686 -7.0980387 1.7415764
-6.9061499 -6.9314055 1.7247963
-6.9215174 -6.6553254 1.6927065
-6.9777331 -6.4263539 1.672258
-7.0104246 -6.0950103 1.6376516
-6.9799275 -6.2461305 1.6512158
-7.0336337 -5.940587 1.6230706
-2.4145024 -1.3684462 1.6026821
-2.4159882 -1.1283791 1.5400368
-6.3203321 -0.54439849 1.5822564
-6.3226967 -0.36271954 1.5797442
-5.3577676 -0.38450813 1.7459725
-6.3180571 -0.068150975 1.5761435
-5.3617105 -0.09246473 1.7432148
-6.3128929 0.13527195 1.5750915
-5.3543687 0.15306951 1.7412028
-6.301333 0.36084834 1.5745291
-5.3448205 0.38292804 1.7418833
-6.2713695 0.63022065 1.5724053
-5.3270774 0.61238998 1.7431084
-9.07763 0.8462466 1.6087171
-6.2576051 0.90160292 1.5772578
-5.2923236 0.87889767 1.7441187
-8.8404627 1.0802621 1.571568
-6.2286253 1.1262004 1.5790727
-8.6609659 1.3741856 1.547525
-6.2033334 1.3524381 1.5840231
-8.5187855 1.6033624 1.5296458
-8.4943094 1.7249885 1.5295466
-6.1725974 1.6261622 1.5925871
-8.4158478 1.898007 1.5224719
-6.1466217 1.9050974 1.6055708
-8.3433733 2.1344163 1.5198332
-6.1126394 2.1369724 1.6155962
-8.2776814 2.3719649 1.5196494
-6.066442 2.3676975 1.6248544
-8.2396603 2.6185846 1.5258484
-6.0410295 2.6104567 1.6419809
-8.1865292 2.8621869 1.5305939
-6.0186648 2.8079076 1.6571029
-5.9899068 2.9525998 1.6662217
-8.1727171 3.1226668 1.5441303
-5.9742136 3.1061227 1.6800926
-8.1752739 3.3948565 1.5623698
-5.9356971 3.3614094 1.7021402
-8.1792879 3.6041336 1.5775356
-5.9018097 3.6268048 1.728472
-8.3279591 3.9580436 1.6274323
-8.2378845 3.7716589 1.5991013
-5.8891039 3.7953665 1.7481639
-6.5852051 -17.806803 1.9930387
-6.7083035 -17.371311 1.9548846
-6.828732 -16.956921 1.9190956
-6.9606743 -16.595098 1.8892701
-7.0976524 -16.265041 1.8631109
-7.2629695 -16.014639 1.8461884
-7.43888 -15.797467 1.833281
-7.6652875 -15.691594 1.833581
-6.625813 -9.161603 1.9927118
-6.7168961 -8.8803272 1.962496
-6.7702584 -8.5618343 1.9238391
-6.7813454 -8.3280458 1.8929529
-6.8025265 -8.1140633 1.8662846
-6.8059669 -7.8861113 1.8361015
-6.8199973 -7.677423 1.8100843
-6.8482771 -7.384418 1.7752781
-5.5692768 -5.6708117 1.9813459
-5.6081939 -5.392662 1.9395139
-5.629972 -5.1116076 1.8956871
-5.6588631 -4.9200764 1.8693419
-5.3615103 -0.53929323 1.7513536
-4.8021278 -0.58749843 1.9551544
-4.803668 -0.37938315 1.9475954
-4.7992315 -0.082783177 1.9401277
-4.8005738 0.1370834 1.9410785
-4.7909884 0.37764937 1.9425825
-4.7797499 0.6188674 1.9480883
-4.7646194 0.86150509 1.9572345
-5.2693725 1.1487648 1.7532696
-4.7602482 1.0376794 1.9692034
-4.7368464 1.1757077 1.9728121
-5.233036 1.3786396 1.7593046
-4.7193241 1.3888115 1.9885535
-5.2011456 1.6120049 1.770275
-5.1673589 1.8481473 1.7841886
-5.1189842 2.125716 1.802178
-5.0781589 2.4135735 1.8280325
-5.0355811 2.6642663 1.8522559
-5.0084443 2.8836293 1.878956
-4.960043 3.0974305 1.9013247
-4.9281697 3.3800724 1.9430281
-4.9092636 3.6317558 1.985448
-5.8735027 3.9054134 1.7599562
-5.8743219 4.0908871 1.7862241
-5.8589382 4.3343592 1.8185556
-5.8583536 4.5990705 1.8585007
-5.8609247 4.8787446 1.9028957
-5.8673677 5.1006942 1.9399709
-5.8817606 5.3397331 1.9823353
-7.831676 7.4221125 1.9046966
-7.6695814 7.5876904 1.9045339
-7.54321 7.7900252 1.9141992
-7.4764071 7.9455066 1.925918
-7.4028091 8.0964184 1.9366213
-7.3276 8.3686295 1.9636401
-7.2506571 8.6479111 1.9922001
-6.1281667 -20.02562 2.1982799
-6.2385702 -19.390169 2.1381512
-6.349215 -18.806538 2.0836453
-6.4685373 -18.291882 2.0367167
-6.0666838 -11.175883 2.2408919
-6.1296191 -10.916254 2.2062309
-6.1950912 -10.672144 2.1746247
-6.2487369 -10.418236 2.1409235
-6.3116279 -10.18959 2.1123164
-6.3821216 -9.9813995 2.0879128
-6.4607048 -9.6426449 2.0456438
-6.562933 -9.3537159 2.0138285
-5.4302721 -7.0732055 2.2226295
-5.4423871 -6.8827682 2.1870668
-5.4764524 -6.6290016 2.143301
-5.4993358 -6.3722892 2.0980701
-5.5322623 -6.1394687 2.0600593
-5.5517941 -5.9007916 2.0195713
-4.9465671 -4.8248253 2.2448227
-4.9769516 -4.6505432 2.2129514
-4.9944515 -4.4060545 2.1638036
-5.0028996 -4.2256856 2.1275632
-4.5225663 -0.61933231 2.2271152
-4.5219908 -0.35722584 2.2131724
-4.5221658 -0.078072056 2.206799
-4.5252037 0.12927938 2.2087402
-4.5185423 0.35621649 2.2116082
-4.5094795 0.61676812 2.2208819
-4.5068026 0.91500628 2.2437251
-4.4995155 0.81340224 2.2309299
-4.7109418 1.6091743 2.0123391
-4.6887031 1.8690212 2.0405109
-4.6597877 2.1334569 2.0717409
-4.6293716 2.3650801 2.1015072
-4.6083636 2.609766 2.1409485
-4.588779 2.8655198 2.1870487
-4.5618696 3.0806856 2.2252412
-4.8959599 3.8435016 2.0237584
-4.889091 4.0696239 2.0682616
-4.903625 4.3252592 2.125952
-4.920187 4.5970001 2.1893463
-4.9350748 4.8128467 2.2412605
-5.8937025 5.6666064 2.0402184
-5.8937407 5.9147458 2.0835755
-5.9061522 6.0993619 2.1186175
-5.9342666 6.3065662 2.1608694
-5.9591084 6.6126957 2.2213306
-7.2049646 8.8475943 2.0142412
-7.1660161 9.0616188 2.0394104
-7.0982161 9.3840342 2.0771701
-7.0337296 9.8740253 2.1401742
-6.9919062 10.27403 2.1938562
-6.9652481 10.556597 2.2326782
-5.7852535 -22.28187 2.4162977
-5.8961773 -21.442623 2.3342466
-6.0121698 -20.700859 2.2626791
-5.7600079 -12.701045 2.4574347
-5.8237996 -12.368004 2.4089117
-5.8868098 -12.051239 2.3634171
-5.9464502 -11.744102 2.31967
-6.0064487 -11.452873 2.2789271
-5.3900924 -8.4301453 2.4938283
-5.374577 -8.1465845 2.4324784
-5.3821645 -7.909451 2.3844571
-5.3866401 -7.6774402 2.3375428
-5.4070091 -7.3659039 2.2775137
-4.8903742 -5.8335776 2.4728155
-4.9162931 -5.615715 2.4246407
-4.9278049 -5.3902669 2.3725202
-4.9393296 -5.1758223 2.3242555
-4.9500771 -4.9684649 2.2784336
-4.5710483 -4.0908637 2.4781444
-4.5965409 -3.8833122 2.4310968
-4.508184 0.98267454 2.2511969
-4.4891081 1.1483912 2.2610927
-4.4875464 1.3907733 2.2924452
-4.4642291 1.6329746 2.3196547
-4.4497833 1.8852777 2.3581827
-4.4411497 2.1108732 2.3994896
-4.4448352 2.3516777 2.4538479
-4.4398074 2.5138655 2.4895556
-4.5593033 3.2234137 2.2571445
-4.5582829 3.3720429 2.2920926
-4.5625658 3.5817549 2.3448777
-4.5739188 3.8635833 2.4205153
-4.5839663 4.1015701 2.4865565
-4.9507856 4.9683933 2.2804663
-4.9793649 5.14222 2.3273032
-5.0227361 5.4932766 2.4201121
-4.9970107 5.3104744 2.370842
-5.061419 5.697226 2.4777961
-5.9802079 6.9287105 2.2839096
-6.0008526 7.1572256 2.3306868
-5.9901347 7.3557677 2.3671806
-5.9376874 7.6205316 2.4107723
-5.8950601 7.9096274 2.4616487
-5.8636818 8.1071653 2.496752
-6.9388385 10.851305 2.2737701
-6.9388571 11.2014 2.3260791
-6.9256625 11.546027 2.3768156
-6.9189916 11.918356 2.4328244
-6.9223766 12.327221 2.4958012
9.1884604 68.9953 2.4415674
-15.872293 69.215973 2.4933345
-14.834703 69.22448 2.4856739
-13.802073 69.227257 2.4783602
-12.776117 69.234779 2.471761
-11.754376 69.236557 2.4654944
-10.735905 69.227791 2.4593852
-9.722352 69.220154 2.4538426
-8.7159185 69.235016 2.4496176
-7.7102404 69.227966 2.4451323
-6.7085657 69.227119 2.4413774
-5.7112827 69.245583 2.4388101
-4.7146263 69.246452 2.4361262
-3.7193544 69.237442 2.4335964
-2.7264202 69.242416 2.4320567
-1.7341259 69.23394 2.4305425
-0.7429601 69.241753 2.4300966
1.2393045 69.244507 2.430239
2.2309797 69.243553 2.4309716
3.223587 69.243553 2.4322348
7.186698 69.006584 2.433929
8.1868038 69.008049 2.4377439
10.199314 69.02137 2.4472806
11.208247 69.004623 2.4519966
13.292331 69.247787 2.4728842
15.359438 69.247437 2.4872837
0.24812701 69.250175 2.4301674
4.218102 69.253143 2.4343328
5.2139134 69.253242 2.4365971
6.2118974 69.253586 2.4393723
12.270928 69.267456 2.4671941
14.32392 69.252892 2.4799988
16.409801 69.277466 2.4964027
-5.5657101 -24.27235 2.6136968
-5.6695299 -23.196049 2.5063281
-5.4941211 -14.22763 2.6873252
-5.5590367 -13.8045 2.6221988
-5.6317544 -13.427221 2.5656173
-5.6878095 -13.034645 2.5059381
-5.4663267 -9.4169931 2.7136953
-5.4277005 -9.0496216 2.629976
-5.3966265 -8.7126474 2.5542593
-4.8675365 -6.6312103 2.6721249
-4.8762717 -6.3517756 2.6012006
-4.8912826 -6.096478 2.5390704
-4.5368776 -4.8926039 2.6954529
-4.5398512 -4.6229086 2.617497
-4.5470705 -4.3725219 2.5484557
-4.5659771 -4.2055497 2.5077519
-4.0778499 -3.8105912 2.7218943
-4.1210017 -3.5838516 2.6636336
-4.1888947 -3.3379545 2.6123877
-4.2439165 -3.1873169 2.5885122
-3.556546 -3.092905 2.7211807
-3.4914346 -3.216048 2.740365
-3.641026 -2.859406 2.6730897
-3.7616343 -2.541074 2.6208725
-3.7122717 -2.6655998 2.6385477
-3.8090324 -2.4172654 2.6046371
-4.2221737 -1.0485774 2.5120587
-4.2770424 -0.80560005 2.5131712
-4.2444005 -0.92604876 2.5086908
-4.315969 -0.62229234 2.5185552
-4.3722401 -0.34521261 2.533011
-4.4025731 -0.075906441 2.5431406
-4.423439 0.12632596 2.5557206
-4.4184599 0.34827894 2.559921
-4.4187055 0.60425651 2.5759542
-4.4183874 0.86426532 2.6004338
-4.4198046 1.1306809 2.6351507
-4.4219661 1.3704327 2.6739168
-4.4218783 1.6174875 2.7197318
4.0566578 2.3737979 2.713974
-4.4340496 2.6380219 2.5176194
3.9959624 2.5344641 2.7320237
-4.4402757 2.8620293 2.5779068
-4.4634275 3.1082225 2.654094
-4.4757271 3.3109448 2.7166781
-4.609004 4.2443109 2.5328414
-4.6368852 4.3942862 2.5824723
-4.6613302 4.6120224 2.6508818
-4.709743 4.8637447 2.7369323
-5.1010556 5.9100866 2.5383596
-5.1410995 6.1317668 2.6017008
-5.1990328 6.3842807 2.6769955
-5.839396 8.3218718 2.5368755
-5.8168631 8.5473843 2.5799775
-5.7827158 8.764327 2.6202083
-5.7425222 8.9804354 2.659971
-5.7168717 9.2287426 2.7090037
-6.9543853 12.810301 2.5731878
-7.0028157 13.351797 2.6615481
-22.189434 68.963875 2.5439849
-21.110754 68.982292 2.5332108
-20.029856 68.962486 2.5216465
-18.969027 68.981071 2.5120881
-36.285522 69.182907 2.74365
-35.037796 69.193825 2.7239017
-33.80022 69.189384 2.7043881
-32.586578 69.199005 2.6862385
-31.386129 69.202492 2.6686392
-30.200979 69.205772 2.6517985
-29.028578 69.20459 2.635534
-27.875423 69.216377 2.6204886
-26.730513 69.216141 2.6056933
-25.59866 69.217155 2.5916357
-24.480892 69.22438 2.5784829
-23.36418 69.201996 2.5648873
-17.968151 69.200554 2.5104022
-16.923969 69.238136 2.5026634
36.879967 69.107903 2.7435629
17.460302 69.276253 2.5049651
18.516836 69.269295 2.5138938
19.586075 69.279266 2.5240231
20.659689 69.273819 2.5341878
21.746412 69.281311 2.5454338
22.839315 69.277138 2.5568731
23.941452 69.270042 2.5688367
25.062393 69.285202 2.5822756
26.189644 69.285027 2.5958102
27.325434 69.275429 2.6096694
28.477551 69.274841 2.6245632
29.653078 69.297127 2.6410444
30.827477 69.282875 2.6568696
32.024189 69.285217 2.6740842
33.23592 69.2855 2.6919978
34.471287 69.299591 2.7112532
35.713161 69.291153 2.7304542
-5.5421681 -25.863424 2.7761483
-5.2899899 -15.669642 2.9139652
-5.3577824 -15.151386 2.8315959
-5.4246297 -14.669033 2.7557142
-5.2410269 -10.72955 2.9758806
-5.2941456 -10.456134 2.920795
-5.3359318 -10.174664 2.86324
-5.3867726 -9.923665 2.814045
-5.4271803 -9.6655645 2.7626288
-4.8940625 -7.6545787 2.9511237
-4.8872004 -7.4080553 2.8827786
-4.8721185 -7.1601143 2.8131678
-4.8709102 -6.9425864 2.7548363
-4.5513639 -5.756268 2.9642262
-4.5548048 -5.5941601 2.9140432
-4.5458555 -5.3452849 2.8345566
-4.5460868 -5.1180782 2.7653022
-3.9966121 -4.6314487 2.9832022
-4.0042529 -4.2563591 2.8498404
-3.984498 -4.4222441 2.9028754
-4.0190701 -4.0926833 2.797399
-3.2113538 -4.0617805 2.9889815
-4.0372529 -3.9381394 2.7504315
-3.2682524 -3.8431206 2.9123166
-3.2326648 -3.9705861 2.955637
-3.3492031 -3.6124856 2.8441229
-3.4451962 -3.3611968 2.7787998
-4.4220867 1.8735142 2.7740002
-4.4209018 2.101265 2.827327
-4.4334412 2.3457422 2.8971927
-4.3689876 2.6417665 2.9491112
3.9893467 2.6521556 2.7659295
-4.2974343 2.8574016 2.9809675
-4.2368913 2.9953802 2.9970136
3.9799874 2.8568447 2.8288448
-4.1948628 3.0566504 2.997936
3.9682121 3.1149743 2.9129779
-4.4957175 3.4772134 2.7733498
3.96591 3.3002458 2.9790361
-4.5232248 3.6567187 2.8382974
-4.5606918 3.9082334 2.9308925
-4.7925506 5.2414927 2.8711076
-4.7468681 5.0446053 2.8001878
-4.8363042 5.4438 2.9437058
-5.2745752 6.6697869 2.7647724
-5.3416772 6.9570293 2.8518565
-5.3607864 7.1927485 2.9167321
-5.3369513 7.3788834 2.960932
-5.6835804 9.4753056 2.7572162
-5.6576037 9.7455473 2.8120003
-5.6288686 10.023778 2.8687384
-5.5992579 10.314108 2.9285898
-5.56635 10.613004 2.9905269
-7.0939488 14.009434 2.7721133
-49.852425 68.926857 2.9875004
-48.36417 68.925484 2.9571531
-47.087395 69.191299 2.9393568
-45.646019 69.181747 2.9109101
-44.237511 69.180992 2.8839498
-42.852314 69.17659 2.8579099
-41.496357 69.18013 2.8332303
-40.168232 69.192017 2.8098819
-38.844826 69.173927 2.7862785
-37.564293 69.194992 2.7651796
38.125862 69.044937 2.7622509
39.423622 69.041214 2.7841947
40.752502 69.054153 2.8077519
-5.0787659 -17.487677 3.2083945
-5.1481495 -16.823751 3.0998268
-5.2196655 -16.223894 3.0027964
-5.1031847 -11.695249 3.1798825
-5.1553783 -11.368175 3.1107278
-5.2001343 -11.043872 3.042073
-4.9640279 -8.5519295 3.2118175
-4.9512916 -8.2555523 3.1268303
-4.9265857 -7.9540229 3.039047
-4.6506906 -6.431139 3.2058337
-4.6032023 -6.17732 3.1118565
-4.5734844 -5.95755 3.0338345
-4.071454 -5.0006738 3.1446083
-4.0125146 -4.7867036 3.0458796
-3.1762383 -4.527586 3.1924896
-3.1775308 -4.3293042 3.1000366
-3.1964715 -4.1640906 3.0302739
-4.1399102 3.154891 3.0064812
6.8094411 3.1171551 3.0256474
-4.0641613 3.2852674 3.0185783
-3.9674041 3.3993227 3.0177789
3.9713593 3.402149 3.0194192
6.7280202 3.436666 3.0523572
6.7539368 3.2688799 3.0314302
-3.8898382 3.5308993 3.034462
3.9848337 3.5653038 3.087441
6.7211437 3.6794531 3.0958238
4.0250959 3.7594962 3.1802111
6.7185283 3.9966376 3.158438
-4.6036038 4.1191001 3.0143726
6.7048802 4.1195655 3.1794424
6.966136 4.0100775 3.2474978
-4.6383677 4.3336287 3.0976253
6.7094722 4.2558503 3.2102036
-4.6766801 4.5607743 3.1876166
-4.895442 5.6718311 3.0288131
-4.9561338 5.9111276 3.1183994
-5.0267301 6.1726689 3.2180889
-5.3062329 7.5620284 3.0036387
-5.2725534 7.8689747 3.0798388
-5.2301016 8.1790781 3.156565
-5.1891837 8.3768902 3.2039127
-5.5442824 10.949113 3.0625567
-5.5198312 11.299248 3.138068
-5.4913917 11.661331 3.2164638
-61.212292 68.903206 3.2366078
-59.475628 68.90992 3.196655
-52.915085 68.917877 3.0514784
-51.368149 68.923256 3.0188794
-57.991627 69.167664 3.1698244
-56.311928 69.150826 3.1318326
-54.697056 69.16642 3.0967991
-4.9326444 -18.998838 3.4582298
-5.0037556 -18.197884 3.3251729
-4.9599538 -12.844783 3.4312315
-5.0096593 -12.440671 3.3421249
-5.0581551 -12.060042 3.2590179
-4.9512486 -9.4414377 3.4627159
-4.9866495 -9.1868315 3.3951945
-4.975625 -8.8616362 3.3010209
-4.7024269 -7.1281953 3.4493392
-4.6945939 -6.8994355 3.370837
-4.6687412 -6.6546354 3.2835717
-4.2558265 -5.3826637 3.3461475
-18.988094 -0.00057515409 3.3501108
-18.710419 0.26729852 3.3015037
-18.573589 0.53130966 3.2784123
-18.522989 0.79532105 3.2712014
5.9607964 0.90175319 3.4802606
-18.546961 1.0624796 3.2778301
5.853456 1.1443871 3.4431794
-18.622232 1.3344399 3.2942171
5.7324104 1.4222851 3.4095926
5.7689734 1.3005612 3.4138246
5.646986 1.6174902 3.3912334
6.9569654 1.6734831 3.4894073
5.5645809 1.8558903 3.3865864
6.8514504 1.8567718 3.4619818
5.4735961 2.090698 3.3828299
6.6971073 2.1806226 3.434896
6.7642016 2.0429418 3.4458899
5.3879952 2.373776 3.399528
6.6332188 2.3718104 3.4355927
5.3092408 2.664011 3.4296529
6.5464363 2.6086783 3.4370453
-5.0360646 2.8514135 3.3426216
5.2776861 2.8399529 3.4601519
6.4827051 2.8560381 3.4549551
8.1190968 2.9690073 3.4924088
6.4262624 3.1104507 3.482233
8.0679131 3.1482272 3.4987929
6.7424736 4.4133606 3.2559114
-4.7239389 4.7406645 3.265754
6.8076921 4.5965581 3.3188632
-4.7483892 4.9036164 3.3308477
-4.8037553 5.1050239 3.4206021
-5.0695162 6.410459 3.3038924
-5.0327482 6.6534386 3.3725901
-4.9987874 6.9113159 3.4481592
-5.1689501 8.6173449 3.2672455
-5.1407743 8.8552818 3.3292174
-5.1147366 9.1082296 3.3964412
-5.0843487 9.3656311 3.4649305
-2.4084077 10.168317 3.3975859
-2.1092196 10.199296 3.3863358
-2.676167 10.307375 3.4623704
-1.8370488 10.374456 3.4255705
-5.4854679 12.094922 3.3140566
-5.4594998 12.510667 3.4062059
-70.645058 68.897438 3.4650104
-68.654747 68.900879 3.4154816
-66.715691 68.899551 3.3677988
-64.836449 68.905396 3.322443
-63.003098 68.90699 3.2787576
-4.8693838 -19.923229 3.6133912
-4.8681731 -13.767302 3.6388695
-4.9098239 -13.277381 3.5276237
-4.8469043 -10.294027 3.6955383
-4.8787651 -9.9882393 3.6104891
-4.9192924 -9.7160921 3.5372329
-4.7500544 -7.9202685 3.73035
-4.7255483 -7.6296844 3.624999
-4.7153916 -7.3753572 3.5358937
-4.5772572 -6.1427007 3.7355745
-4.5259905 -5.8958726 3.6245182
6.22472 0.40082365 3.6005344
6.27073 0.31374609 3.6241579
6.0827775 0.65450549 3.5317309
6.361958 0.50117952 3.6837099
7.4875717 0.91475195 3.6783369
7.3190613 1.1070901 3.6099119
7.1156445 1.3912086 3.5358829
7.0050826 1.5793558 3.5018201
8.8844223 1.8687905 3.6677866
8.6418381 2.1442716 3.5969028
8.4631577 2.3591211 3.5492587
8.2241297 2.7432177 3.5023108
8.3262196 2.5799499 3.5214238
8.1799078 2.8591988 3.5005765
10.925911 3.1303294 3.6922381
6.3768368 3.3731031 3.5185099
7.9904509 3.4522634 3.5165231
8.0225267 3.3306959 3.5092709
10.66763 3.3895752 3.6363316
10.790673 3.2593989 3.661962
6.3449688 3.5923357 3.5562756
10.465547 3.6583006 3.6017442
10.559447 3.5223606 3.6163046
6.2922034 3.8663514 3.6022561
10.35446 3.8708756 3.5914359
6.2146926 4.1317129 3.6400423
10.234714 4.2493124 3.6003463
10.276571 4.095263 3.5940483
-4.6993093 4.4533601 3.7395709
4.4358892 4.3250418 3.5774026
6.0931511 4.3730831 3.6584177
10.219311 4.4154291 3.6168246
5.6837344 4.7299094 3.606771
5.8735638 4.6095018 3.6420677
10.195055 4.5791936 3.6311002
10.204863 4.8498106 3.6710258
7.4721265 5.2024159 3.6787426
10.223861 5.1303897 3.7165449
-4.852984 5.3075509 3.5094028
7.3502359 5.275331 3.6555629
10.204966 5.3050795 3.7369328
14.004138 5.3499942 3.737206
-4.8998899 5.5960026 3.6296682
13.922196 5.5483022 3.7361941
-4.8583536 5.8799992 3.7221165
13.862963 5.7559547 3.7420692
9.7789173 6.0085058 3.7292545
-4.9761758 7.0916381 3.5022297
-4.947628 7.3841419 3.5933232
-4.9096084 7.6778669 3.6841669
-4.8836865 7.8837209 3.749016
-2.597789 8.4891615 3.5888479
-2.3892822 8.4514141 3.5504885
-2.1328349 8.4632769 3.5283315
-2.8434727 8.6235943 3.6708319
-1.8907393 8.5258608 3.5303783
-1.6601735 8.6517067 3.5613081
-1.4388514 8.8630543 3.6298227
-1.2760301 9.0868168 3.7093027
-5.057477 9.6427879 3.5403204
-5.0381465 9.9495974 3.6261132
-5.0062399 10.247945 3.7083457
-1.6552349 10.674889 3.5121455
-1.5494694 11.033534 3.6224618
-5.4487915 12.990222 3.5151706
-5.4418235 13.512633 3.6350784
-81.562386 68.882187 3.7482255
-79.250343 68.896782 3.6870127
-76.993797 68.894394 3.6276274
-74.804115 68.888077 3.5706363
-72.705544 68.904411 3.5172625
53.580437 87.892143 3.6042619
55.326096 87.89991 3.6364193
57.101284 87.903946 3.6697545
58.906994 87.903625 3.7042892
60.74506 87.899529 3.7400966
-4.740006 -22.121046 3.9856606
-4.7999473 -20.933762 3.7837753
-4.7789221 -14.85452 3.8884039
-4.8224707 -14.285311 3.7571225
-4.7569485 -11.342268 3.9947066
-4.7840343 -10.964201 3.8853014
-4.8204846 -10.630047 3.7909811
-4.7749376 -8.5044823 3.9394457
-4.7667522 -8.212328 3.8353517
-4.6127825 -6.5750871 3.9165485
-4.6024704 -6.3646641 3.8300791
9.1172829 1.9190321 3.7636395
11.309544 2.8926945 3.7922666
11.356028 3.0783947 3.8222718
-4.7441044 4.6264849 3.8275347
-4.7858777 4.8724937 3.9450417
14.548306 4.8531804 3.8231175
14.144874 5.1730127 3.7545743
14.31797 5.0051789 3.7810724
10.186259 5.481945 3.758467
10.11676 5.6327381 3.7622232
9.9289503 5.9066272 3.7538085
10.048138 5.784452 3.7671442
13.87426 5.9948597 3.7679403
-4.8271899 6.1040072 3.7974796
-4.8135762 6.3636193 3.893733
13.915198 6.2503777 3.8030107
-4.7912979 6.6244206 3.9894934
13.958769 6.511611 3.8400443
13.942431 6.8724194 3.8754447
13.781507 7.164619 3.8725293
-2.6493912 7.6654129 3.9577508
-2.3952799 7.6312823 3.9030895
-2.1604133 7.6423559 3.8754978
-1.8795319 7.6905327 3.8634567
-1.610822 7.7901678 3.8818564
-1.404016 7.9286327 3.9291811
-4.8739953 8.1256142 3.8304753
-1.254045 8.0881939 3.99389
-4.8465528 8.3484707 3.9024274
-4.8317747 8.6043444 3.9892933
-3.1885958 9.0167732 3.866272
-1.1700388 9.2964249 3.7876289
-1.0644506 9.5600281 3.8884087
-4.9840488 10.583995 3.8037405
-4.968967 10.956136 3.911516
-1.4616611 11.612889 3.8053987
-5.4424863 14.093103 3.7698815
-5.4510546 14.739658 3.9215519
-89.033646 68.867821 3.9516132
-86.450989 68.870049 3.8804545
-83.964516 68.876442 3.8128157
63.159523 88.653091 3.8099525
-4.6848497 -23.500467 4.2216363
-4.6966228 -16.172489 4.1964078
-4.7371154 -15.481123 4.0342293
-4.6885548 -12.142372 4.2274227
-4.726346 -11.737515 4.1096334
-4.707129 -9.2973557 4.2090731
-4.729454 -9.018796 4.1132164
-4.7531037 -8.756856 4.0243964
-4.6497631 -7.2729468 4.2092814
-4.6309237 -7.0200367 4.1008749
-4.6166735 -6.7851391 4.001873
-4.7629528 5.1352873 4.0457268
-4.7547989 5.3519859 4.1351485
-4.7304125 5.4805613 4.181747
-4.70894 5.6162391 4.233408
-4.7623653 6.89223 4.0881662
-4.7384329 7.1815686 4.1985455
-2.8637052 7.7436666 4.0288372
-3.0261819 7.8363633 4.0991883
-3.2371964 8.038475 4.2287245
-1.1507546 8.1950941 4.0381179
-1.0506128 8.3479872 4.1056132
-0.95058751 8.5379362 4.1918969
-4.8108611 8.861866 4.0763431
-4.7915282 9.1357365 4.170341
-0.95830423 9.8921757 4.0175004
-0.85622501 10.385264 4.2123337
-4.9404936 11.3214 4.0162568
-4.9232988 11.737486 4.138433
-5.4816589 15.500846 4.1027637
-97.396889 68.863701 4.1872258
-94.49572 68.861923 4.104589
-91.717178 68.868263 4.0264306
-4.6338763 -16.85338 4.3553901
-4.5964608 -12.999372 4.4780707
-4.6416063 -12.552506 4.3466063
-4.5988894 -10.14174 4.4976521
-4.6332865 -9.8406715 4.3931241
-4.6679277 -9.5569143 4.2958627
-4.6046872 -7.9333825 4.4728084
-4.6413193 -7.6162376 4.3491774
-4.6837349 5.8367705 4.3227835
-4.6375585 6.1308889 4.4404211
-4.7210593 7.3829975 4.2763596
-4.7001452 7.5874262 4.3553524
-1.3321306 7.5217514 4.4122839
-1.1257896 7.622673 4.4507055
-4.6741004 7.7923603 4.4341278
-0.85087115 8.7838392 4.3061948
-0.74980295 9.0952702 4.4531388
-4.7703195 9.420702 4.2688131
-4.7448688 9.7129402 4.370008
-4.7241182 10.032052 4.4826937
-0.75358707 11.073802 4.4867578
-4.91436 12.202967 4.2773066
-4.9027796 12.69565 4.4249392
-5.5355339 16.396095 4.3182921
-106.82151 68.846428 4.4606566
-103.55148 68.856285 4.3649716
-100.40621 68.857391 4.2736468
-4.5207448 -18.49758 4.7448206
-4.57306 -17.614597 4.5346909
-4.5563679 -13.497561 4.6267147
-4.5317841 -10.805779 4.7325959
-4.5613842 -10.45429 4.6068058
-4.5595608 -8.4005709 4.6606379
-4.5823255 -8.1617041 4.5640621
-4.556129 -6.6963906 4.6752682
-4.6149893 6.3806353 4.5485415
-4.5849218 6.6353912 4.6587987
-3.1451027 7.4982901 4.6966839
-3.286283 7.5308185 4.7460427
-3.0653472 7.6118064 4.7398109
-0.92823803 7.8317757 4.5553646
-4.6390762 8.1258774 4.5660801
-0.78266978 8.0804129 4.6890206
-4.6097121 8.4913521 4.7148175
-0.64894891 9.5372276 4.6644845
-4.7054095 10.375063 4.605391
-4.6950698 10.759056 4.7455182
-4.9017529 13.254457 4.5947719
-5.6712942 17.62673 4.620543
-4.4745007 -19.515308 4.9888978
-4.4811211 -14.645103 4.9739809
-4.5186248 -14.045973 4.7920055
-4.508862 -11.197815 4.8754997
-4.4867053 -9.1862135 4.9848804
-4.5088181 -8.9059715 4.8673582
-4.5336785 -8.6457634 4.7601528
-4.498754 -7.264009 4.9319897
-4.5195508 -7.0695233 4.8433933
-4.5391793 -6.8812013 4.7584233
-4.5595026 6.9103684 4.7821021
-4.5509191 7.1169147 4.8794541
-4.5374293 7.324749 4.9769058
-2.6896193 8.1593008 4.9624796
-2.3764534 8.182436 4.9218764
-2.0594521 8.1729603 4.8684416
-1.8125873 8.1738567 4.8360634
-1.6465409 8.2601299 4.8649306
-0.68776453 8.3435307 4.835484
-4.6059737 8.7819691 4.8390756
-4.5937428 9.0720139 4.962152
-4.6852584 11.17005 4.8967075
-4.9070597 13.876144 4.7854362
-4.4549456 -15.340921 5.1880798
-4.4658356 -12.077619 5.2006936
-4.4790039 -11.600107 5.0221972
-4.472723 -9.4999914 5.1198578
-4.4750137 -7.7102466 5.1458077
-4.4823661 -7.4744387 5.0307598
-4.5284724 7.5495772 5.0851016
-4.5304656 7.803998 5.2122521
-3.0152149 8.1534405 5.0212479
-2.9003479 8.2018356 5.0249615
-3.1868589 8.2525129 5.1098375
-0.58826494 8.6464214 5.0056167
-4.5914736 9.3989668 5.1045103
-4.5390677 9.639122 5.1991124
-4.3220887 9.7141953 5.1884708
-4.1114936 9.8022099 5.1869917
-0.54971063 10.241123 5.0043697
-4.5897093 11.636376 5.0568943
-4.3375354 11.728902 5.0553098
-4.9313955 14.606805 5.0125504
-5.9439731 19.423452 5.0686865
-4.4496307 -20.766905 5.2919884
-4.4500566 -16.185518 5.4515738
-4.4577632 -12.607605 5.4008474
-4.4555993 -10.212216 5.4326582
-4.4639082 -9.844429 5.2704825
-4.4586997 -8.215045 5.3952384
-4.4603367 -7.9447141 5.2591162
-4.5276384 8.0627594 5.3412409
-4.3793998 8.2064877 5.3730764
-4.1298294 8.3026772 5.3564157
-3.8786983 8.3921928 5.340291
-0.4962596 9.2467642 5.3484921
-4.9795489 15.476925 5.2861319
-4.45996 -13.212489 5.6320109
-4.4641647 -10.644946 5.6282597
-4.4713173 -8.8322296 5.7140932
-4.4690299 -8.5227928 5.5547433
-5.1125283 16.706709 5.6805735
-4.4697332 -17.217356 5.7769365
-4.4953008 -13.974036 5.9285607
-4.4883385 -11.147274 5.8592544
-4.4979029 -9.2094889 5.9158769
-5.3136282 54.835869 5.800549
-4.5226731 54.838573 5.7933249
-3.7339573 54.847919 5.788002
-2.9459357 54.846561 5.7827449
-2.1586542 54.832268 5.7773142
-1.3904796 55.529259 5.8479772
-0.59538811 55.524818 5.8459334
0.19934705 55.524559 5.8455267
-4.5568275 -18.646076 6.2337489
-4.5434208 -11.767399 6.1503596
-4.5493417 -9.6631002 6.1647701
-4.5906014 -15.003533 6.3367672
-4.6894979 -12.683008 6.5931206
-4.6578121 -10.272455 6.5102873
-10.699182 68.99337 7.3512559
-15.872796 69.219528 7.4777517
-14.831676 69.211868 7.4531627
-13.800218 69.219635 7.4318995
-12.775073 69.231003 7.4126592
-11.752508 69.227661 7.3934603
-9.7245159 69.238274 7.3616881
-8.7153664 69.233757 7.3471122
-7.712153 69.248779 7.3361592
2.2316525 69.248207 7.2938557
3.2242706 69.246742 7.2977057
7.2116127 69.240204 7.3280873
9.2220364 69.242828 7.3530521
10.233133 69.245995 7.3680625
13.248339 69.015144 7.3968458
1.2399757 69.253479 7.2919002
4.2185178 69.250984 7.3036566
5.2147317 69.256683 7.3112664
6.2127886 69.257133 7.3198366
8.2163868 69.252373 7.3409486
11.249087 69.252129 7.3849616
12.26985 69.257675 7.4033914
14.32686 69.263817 7.4445767
15.362466 69.257935 7.4666758
16.404354 69.251457 7.4903822
-24.470089 69.194435 7.7285428
-23.359865 69.189888 7.689858
-22.270235 69.215744 7.6564736
-21.182781 69.218475 7.6224065
-20.100399 69.206276 7.5885515
-19.032194 69.211784 7.5584569
-17.972422 69.218102 7.5302253
-16.921177 69.227943 7.5041189
21.662554 69.011627 7.6121178
17.457956 69.264061 7.517859
18.520008 69.278374 7.5472651
19.583525 69.267563 7.5756989
20.657614 69.264259 7.6067443
22.831499 69.250961 7.6736217
23.943769 69.274353 7.7132378
-26.627701 68.950401 7.7833314
-30.195597 69.193764 7.9500127
-29.033829 69.217484 7.9041519
-27.868324 69.199173 7.8556724
-25.592567 69.201225 7.7694612
29.544146 69.040398 7.9018712
25.059307 69.27433 7.7522154
26.188335 69.279274 7.7937531
27.323578 69.268478 7.8355637
28.482973 69.285828 7.8826652
30.824972 69.275124 7.9782381
-36.290356 69.192253 8.2277269
-35.03175 69.182045 8.1660357
-33.797348 69.183701 8.1082821
-32.584499 69.194832 8.054081
-31.384516 69.199211 8.0014591
32.024303 69.283348 8.0309734
33.234135 69.279701 8.0846796
34.461205 69.277275 8.1409378
35.712009 69.286903 8.201107
-41.500553 69.187111 8.4960318
-40.165573 69.187462 8.424612
-38.856823 69.195351 8.356988
-37.566994 69.200058 8.2917566
38.126358 69.043854 8.2977638
39.429379 69.049339 8.3651943
40.744617 69.038857 8.4335127
36.979416 69.292259 8.2633533
-42.701061 68.932381 8.538929
-45.642696 69.17662 8.7274818
-44.238956 69.183189 8.6475449
-50.030083 69.172302 8.9897833
-48.545887 69.184296 8.9001436
-47.078224 69.177696 8.8117199
-53.107605 69.168381 9.1830826
-51.565578 69.18795 9.0867863
-56.316277 69.155884 9.391592
-54.702782 69.173393 9.2867212
-5.3130622 54.833485 9.7241755
-4.5219235 54.833656 9.7116632
-3.7330928 54.840412 9.7023287
-2.9459517 54.853615 9.6961384
-2.1587267 54.843567 9.6878319
-61.438568 69.157539 9.7411757
-59.689243 69.157082 9.6198292
-57.986862 69.161667 9.5040827
-77.421814 54.739815 9.9833336
-65.066582 69.149544 9.9982634
-63.227417 69.151924 9.8667974
-79.811752 54.733265 10.189329
-76.767975 55.942524 10.001363
-76.757561 57.6348 10.106557
-76.756844 59.37104 10.217415
-66.708282 68.891449 10.097908
-76.759476 61.148804 10.333319
-76.77787 62.980595 10.456182
-70.899658 69.145248 10.428259
-68.898277 69.144806 10.278477
-76.756027 64.822449 10.578584
-76.764999 66.735535 10.710467
-75.075005 69.136978 10.74665
-72.961632 69.146576 10.584805
-76.775635 68.698601 10.84813
53.57711 87.884232 10.827898
59.31805 88.514603 11.208395
57.833496 89.028694 11.167803
56.735176 90.136116 11.203976
60.884109 88.098335 11.264602
63.168209 88.66288 11.450937
-1.7334477 69.245049 12.226044
-0.7418682 69.231316 12.220391
0.24911931 69.246864 12.222411
1.2403079 69.243103 12.223523
2.2318285 69.237213 12.226762
3.224721 69.244766 12.23488
4.218811 69.246681 12.244521
-10.69666 68.979523 12.321666
-14.83199 69.214867 12.495337
-13.797677 69.208595 12.457207
-12.771707 69.214661 12.424049
-11.750743 69.219406 12.393368
-9.7217245 69.221161 12.338629
-8.7132711 69.220276 12.314899
-7.7085433 69.220055 12.293886
5.2140055 69.239487 12.255075
6.2126703 69.249344 12.271183
7.2127848 69.24575 12.28746
9.2212238 69.232063 12.326583
11.248878 69.246849 12.381228
13.247496 69.007233 12.400854
8.2174721 69.256393 12.308837
10.234895 69.253624 12.355111
12.271994 69.266037 12.41466
14.32632 69.257843 12.481324
-21.101038 68.952194 12.729136
-20.032427 68.97316 12.67872
-19.019493 69.166603 12.662883
-17.970186 69.210609 12.622499
-16.916342 69.209412 12.57677
-15.870106 69.209175 12.534101
15.361204 69.249062 12.517941
19.542517 69.119797 12.675644
20.584675 69.017059 12.709381
16.407852 69.263168 12.561515
17.45858 69.263603 12.605477
18.516485 69.262367 12.652041
-25.501301 68.954987 12.978355
-24.385475 68.955788 12.911445
-23.281517 68.958496 12.848196
-22.191715 68.97245 12.790255
21.663067 69.010704 12.763845
22.755903 69.019188 12.824185
23.85659 69.019691 12.886245
24.977827 69.046715 12.956547
-103.5363 68.845291 13.090869
-28.924276 68.956688 13.200505
-27.767946 68.950356 13.121828
-26.625248 68.944542 13.046821
26.097284 69.036087 13.023147
27.23074 69.030838 13.094172
28.371778 69.013115 13.166319
-106.81194 68.839317 13.378915
-32.470093 68.952126 13.454363
-31.270367 68.947823 13.36479
-30.089277 68.950462 13.28043
29.544613 69.039307 13.250459
30.721703 69.040871 13.333613
31.909121 69.032043 13.418558
-33.681335 68.946419 13.545955
33.115154 69.029572 13.508645
34.346786 69.045189 13.606325
35.581181 69.031021 13.7023
36.845085 69.038528 13.806864
38.124722 69.038895 13.914447
-0.72282207 28.909283 14.11065
-0.30845994 28.869537 14.087602
0.1046402 28.830547 14.067813
0.51741523 28.833273 14.071261
0.92997384 28.820309 14.069937
1.3447815 28.855394 14.094963
39.425713 69.040924 14.026955
40.748745 69.043884 14.144402
-1.1529154 29.312496 14.314098
-10.733374 69.218765 17.478226
-9.720912 69.218201 17.44108
-8.7126026 69.218208 17.407795
-7.7072048 69.211815 17.376575
-6.7069039 69.223099 17.353439
-5.7076559 69.217461 17.329676
-4.71209 69.228935 17.313793
-3.7168813 69.217064 17.295652
-2.7250855 69.244431 17.290874
-1.7324789 69.226059 17.278223
-0.7414701 69.241379 17.277523
0.2496231 69.242805 17.276896
1.240819 69.241997 17.279243
2.2325213 69.241852 17.285299
3.225271 69.244629 17.295633
4.2188907 69.23864 17.307331
5.2145553 69.239059 17.324198
7.2132125 69.244011 17.369751
8.2171412 69.248367 17.398436
9.2231932 69.242065 17.428108
6.2133327 69.250092 17.347311
10.236612 69.260849 17.467793
-15.871897 69.218391 17.720333
-14.834593 69.228584 17.666702
-13.80046 69.224304 17.613327
-12.769677 69.20562 17.560192
-11.748531 69.208572 17.516399
11.249671 69.247635 17.503145
12.26736 69.236046 17.542665
14.323912 69.242783 17.640778
13.294986 69.250992 17.592728
15.36495 69.262688 17.699919
-20.097048 69.196602 17.980373
-19.033178 69.217415 17.913097
-17.968737 69.206192 17.841742
-16.916567 69.211601 17.77883
16.405724 69.25106 17.75499
17.460897 69.269798 17.821898
18.517084 69.261719 17.886026
19.583504 69.261963 17.95648
-75.080925 69.141869 18.017368
20.655544 69.251961 18.028532
21.742718 69.261818 18.1101
22.841269 69.275543 18.197149
-77.245964 69.118851 18.297533
23.940744 69.260666 18.281216
25.053225 69.252693 18.37171
26.187698 69.272873 18.474442
-79.226929 68.875191 18.53125
27.3134 69.23806 18.567341
28.375433 69.019714 18.61562
29.542364 69.031807 18.730833
57.828102 89.017906 18.72718
-81.537392 68.859779 18.839096
30.716888 69.027847 18.846943
31.910294 69.032402 18.970766
60.880333 88.090431 18.890478
59.319637 88.514511 18.797697
56.734715 90.132843 18.789248
55.705082 91.372231 18.879744
-83.967384 68.877441 19.170679
33.114685 69.026451 19.09724
34.346069 69.041634 19.235291
63.166149 88.657555 19.20372
35.581757 69.030037 19.371773
-86.452049 68.869469 19.510775
36.840515 69.027893 19.516953
38.12484 69.037048 19.671618
-89.027885 68.861877 19.867489
39.431446 69.048943 19.833588
40.745213 69.035889 19.995102
-91.707687 68.859589 20.243357
-94.831589 69.105064 20.71232
-97.735123 69.101158 21.128145
-100.75224 69.092941 21.564224
-103.91376 69.095352 22.026791
7.1875567 68.991699 22.550383
8.1862049 68.982239 22.583145
9.190486 68.991592 22.626823
-107.19656 69.086243 22.510569
-7.7081103 69.223862 22.645227
-6.7068906 69.227585 22.612633
-5.7073135 69.218903 22.5807
-4.7112536 69.223602 22.557827
-3.7167673 69.223984 22.538208
-2.7238934 69.226799 22.524019
-1.7320421 69.229034 22.514263
-0.74087656 69.234886 22.510305
0.25012738 69.23381 22.508701
1.2413715 69.242157 22.514776
2.2332072 69.245667 22.523886
3.2258203 69.244057 22.535954
4.2199264 69.245964 22.553802
6.2132859 69.242699 22.601168
10.199182 69.003044 22.675999
11.210648 69.003204 22.726315
5.2164044 69.255608 22.578823
13.295227 69.248497 22.922804
12.270537 69.250008 22.862963
14.326278 69.250664 22.988897
16.406023 69.249084 23.134529
15.364471 69.257141 23.061541
17.456715 69.250099 23.215809
-20.024006 68.946075 23.342968
-18.962484 68.961403 23.253815
18.514038 69.24733 23.30118
20.655661 69.24955 23.490988
19.582254 69.254646 23.395401
21.742981 69.259918 23.597494
22.835627 69.255775 23.704851
23.945995 69.27327 23.825541
25.056324 69.258736 23.941269
26.187382 69.269562 24.071941
27.329037 69.275269 24.207203
28.480303 69.272415 24.345974
29.64991 69.280769 24.495369
30.82811 69.275482 24.646803
32.020042 69.267563 24.804308
33.238178 69.281647 24.976963
34.466278 69.281067 25.151833
35.71389 69.28421 25.33576
38.119896 69.025978 25.629543
36.97699 69.281448 25.525473
39.428123 69.041023 25.841814
40.753429 69.047722 26.059774
57.830387 89.018875 26.477205
60.882599 88.091217 26.708263
59.321316 88.514496 26.576725
56.724751 90.114418 26.559126
55.702682 91.365646 26.690456
63.164822 88.653183 27.149683
-1.7317226 69.23764 27.99662
-0.74032068 69.234169 27.987953
0.25072381 69.243393 27.99015
1.2415763 69.221497 27.985495
2.2332621 69.229111 27.998505
7.1877255 68.987 28.036379
8.1871843 68.984825 28.080105
9.1922064 68.999344 28.136551
-3.7163706 69.226059 28.023705
-2.7233429 69.226074 28.00495
3.2256403 69.227257 28.013433
4.2194653 69.228279 28.03529
6.2134776 69.23764 28.099348
10.200089 69.004433 28.195129
5.2166481 69.250458 28.071503
11.2108 68.999718 28.255732
12.268386 69.233711 28.420406
13.295505 69.246033 28.500513
14.325509 69.24324 28.580677
15.364843 69.255272 28.673328
16.40803 69.254166 28.766998
17.45846 69.253761 28.867516
18.515701 69.25042 28.973463
19.583302 69.255318 29.089645
20.657478 69.252716 29.209583
21.741201 69.251404 29.337111
22.840044 69.266403 29.478764
23.943541 69.263458 29.620155
25.059788 69.265671 29.771261
26.184467 69.259277 29.926352
27.328308 69.270889 30.097122
28.478949 69.26664 30.269094
29.648846 69.275841 30.455254
30.825174 69.266479 30.641775
32.022343 69.270172 30.842808
33.239365 69.281776 31.056431
34.470528 69.2873 31.276669
35.71394 69.282028 31.501606
36.972706 69.271172 31.733828
38.122833 69.029076 31.869421
39.427353 69.037468 32.130333
40.746033 69.032997 32.396141
7.1878223 68.981262 33.84034
8.1882124 68.987495 33.897278
9.1926813 68.997452 33.963192
4.2210083 69.242889 33.848907
5.2152505 69.223053 33.872101
6.2148762 69.245621 33.923054
10.1986 68.989326 34.02742
11.209959 68.989868 34.103176
13.296375 69.246422 34.403782
14.325922 69.241295 34.499413
12.272962 69.255135 34.317474
57.827393 89.011627 34.499481
15.364824 69.251434 34.61034
16.408167 69.25116 34.723854
59.312698 88.499031 34.626015
56.724361 90.111115 34.607685
17.456375 69.242043 34.840828
18.51528 69.245522 34.972176
60.881031 88.086365 34.801647
55.69899 91.356842 34.776661
19.585476 69.259804 35.117199
21.73926 69.24221 35.409012
20.658047 69.251511 35.259129
63.170609 88.658722 35.381077
22.839006 69.260315 35.581619
24.969622 69.013664 35.807152
23.941648 69.255127 35.751156
26.095385 69.02092 36.000828
27.229788 69.018494 36.198959
28.378309 69.019241 36.408459
31.498459 68.134453 36.621208
30.519846 68.577873 36.621193
29.538094 69.014488 36.625027
57.823826 89.00338 42.89333
59.312836 88.496506 43.053482
56.721035 90.103027 43.027916
55.700977 91.357239 43.241993
60.883575 88.087341 43.273647
63.153969 88.632652 43.980789
59.306313 88.483887 51.96492
57.824223 89.001076 51.777596
56.724369 90.105347 51.942669
60.877316 88.075432 52.231098
55.69841 91.349991 52.195553
55.143261 93.422043 52.923389
63.160282 88.638641 53.095455
64.910286 80.86676 59.878414
63.745308 81.786331 59.877922
62.560513 82.680161 59.87093
61.371723 83.568443 59.872257
60.173779 84.444481 59.877026
58.949356 85.28315 59.867603
57.7281 86.126213 59.873577
56.486431 86.938934 59.870693
55.238197 87.741501 59.873089
53.968578 88.509781 59.864414
52.699928 89.279419 59.868965
51.418995 90.028587 59.871986
50.123512 90.752327 59.870361
48.819893 91.461258 59.871239
47.50325 92.14566 59.868336
46.250916 92.959641 59.961231
66.510727 80.473526 60.285637
45.461987 94.75074 60.690903
68.254234 80.216789 60.818592
